<svg
   viewBox="0 0 30 17.5"
   version="1.1"
   id="svg-farm-flow"
   xmlns="http://www.w3.org/2000/svg">
  <g
     id="layer-farm-flow">
    <g
       id="layer-farm"
       fill="#3abc7a"
       transform="translate(-47.181577,-103.92447)">
      <path
         d="m 49.469587,112.07167 1.951563,-8.1472 h 5.278629 l -0.376205,1.51657 h -3.444628 l -0.411474,1.73996 h 3.04491 l -0.364449,1.51657 h -3.04491 l -0.811191,3.3741 z m 12.261915,-2.66871 q -0.164585,0.67011 -0.09406,1.35198 0.07055,0.67011 0.270397,1.19915 l -1.563603,0.22339 q -0.07055,-0.14101 -0.129323,-0.2704 -0.05878,-0.12934 -0.117555,-0.29393 -0.329179,0.27042 -0.728897,0.44675 -0.399718,0.17642 -0.893488,0.17642 -0.587821,0 -1.011052,-0.19996 -0.411473,-0.21161 -0.68187,-0.55253 -0.258642,-0.35271 -0.376205,-0.8112 -0.117576,-0.47026 -0.117576,-0.9993 0,-0.81118 0.282155,-1.52834 0.29391,-0.71714 0.799436,-1.24618 0.517281,-0.54078 1.210909,-0.84646 0.693628,-0.30565 1.504822,-0.30565 0.105808,0 0.364447,0.0125 0.270397,0.0125 0.611334,0.0587 0.340936,0.0352 0.717141,0.12934 0.376205,0.0941 0.717141,0.25865 z m -1.222667,-2.16319 q -0.152838,-0.0235 -0.282152,-0.0352 -0.117555,-0.0125 -0.29391,-0.0125 -0.399718,0 -0.75241,0.19995 -0.340937,0.19995 -0.599578,0.52904 -0.25864,0.31742 -0.411474,0.74065 -0.14107,0.42323 -0.14107,0.88173 0,0.56432 0.188101,0.89349 0.1881,0.32917 0.693628,0.32917 0.270397,0 0.482012,-0.10581 0.223371,-0.10581 0.470256,-0.35269 0.02352,-0.2939 0.07055,-0.61133 0.05878,-0.32917 0.117555,-0.59958 z m 7.065595,0.15288 q -0.235129,-0.0587 -0.470257,-0.10581 -0.223371,-0.0587 -0.670115,-0.0587 -0.164586,0 -0.364448,0.0352 -0.199868,0.0235 -0.329181,0.0587 l -1.14037,4.74961 h -1.751706 l 1.41077,-5.85469 q 0.505526,-0.16455 1.128615,-0.30568 0.634846,-0.15288 1.422525,-0.15288 0.29391,0 0.646604,0.0587 0.364447,0.0471 0.634844,0.16454 z m 1.516552,-1.22266 q 0.199869,-0.0587 0.423231,-0.12934 0.235129,-0.0823 0.517284,-0.14101 0.29391,-0.0706 0.646602,-0.10581 0.364447,-0.0471 0.834704,-0.0471 0.564308,0 0.928757,0.14101 0.376205,0.141 0.681871,0.42323 0.434988,-0.24688 0.858217,-0.39972 0.434989,-0.16454 1.011052,-0.16454 0.552552,0 0.940512,0.15288 0.399718,0.14101 0.65836,0.42323 0.258641,0.27039 0.376205,0.65834 0.117575,0.37622 0.117575,0.83471 0,0.21162 -0.03526,0.44675 -0.02352,0.23513 -0.08229,0.47026 l -0.799436,3.33882 h -1.751703 l 0.775923,-3.26829 q 0.03526,-0.16455 0.07054,-0.36444 0.04703,-0.21161 0.04703,-0.41148 0,-0.32917 -0.152838,-0.5643 -0.152838,-0.2469 -0.599576,-0.2469 -0.246884,0 -0.470257,0.0941 -0.223371,0.0823 -0.399718,0.17642 0.02352,0.0941 0.02352,0.17642 0,0.0823 0,0.15288 0,0.21161 -0.03526,0.44674 -0.02351,0.23513 -0.08229,0.47026 l -0.799436,3.33882 h -1.751745 l 0.775923,-3.26829 q 0.03526,-0.16455 0.07055,-0.36444 0.04703,-0.21161 0.04703,-0.41148 0,-0.32917 -0.152838,-0.5643 -0.152838,-0.2469 -0.599576,-0.2469 -0.188101,0 -0.317424,0.0235 -0.129323,0.0125 -0.305667,0.0471 l -1.140371,4.78486 h -1.751705 z"
         id="text-farm"
         aria-label="Farm" />
    </g>
    <g
       id="layer-flow"
       fill="#fab914"
       transform="translate(-47.181577,-103.92447)">
      <path
         d="m 47.181577,121.19465 1.951564,-8.14718 h 5.278626 l -0.376205,1.51657 h -3.444628 l -0.411473,1.73996 h 3.04491 l -0.36445,1.51657 h -3.04491 l -0.811191,3.37408 z"
         id="text-f"
         aria-label="F" />
      <path
         d="m 56.998144,121.42447 q -0.834704,0 -1.316717,-0.21162 -0.470255,-0.22336 -0.681871,-0.59956 -0.199868,-0.37622 -0.199868,-0.85823 0.01166,-0.49375 0.14107,-1.04631 l 1.493064,-6.24266 1.822245,-0.28216 -1.634142,6.7717 q -0.04703,0.21161 -0.05878,0.38797 0,0.17641 0.07055,0.31742 0.07054,0.12934 0.235128,0.21162 0.176354,0.0823 0.482013,0.1058 z"
         id="text-l"
         aria-label="l" />
      <path
         d="m 61.678276,121.42447 q -0.623089,0 -1.081589,-0.18808 -0.4585,-0.18808 -0.764167,-0.52904 -0.293911,-0.34094 -0.446742,-0.79943 -0.152838,-0.47026 -0.152838,-1.03456 0,-0.70539 0.223371,-1.41077 0.235128,-0.70539 0.681872,-1.26969 0.446742,-0.5643 1.093347,-0.91701 0.646602,-0.36445 1.481306,-0.36445 0.611334,0 1.069833,0.18808 0.470257,0.18808 0.764168,0.52904 0.305665,0.34092 0.458499,0.81118 0.152838,0.45849 0.152838,1.02281 0,0.70537 -0.223373,1.41077 -0.223371,0.70539 -0.658357,1.26969 -0.434989,0.5643 -1.093347,0.92875 -0.646602,0.35269 -1.504821,0.35269 z m 0.869975,-5.03174 q -0.387963,0 -0.681873,0.22338 -0.29391,0.22336 -0.493768,0.5643 -0.199868,0.34094 -0.305668,0.75242 -0.09406,0.39972 -0.09406,0.76415 0,0.59959 0.1881,0.92878 0.1881,0.31742 0.681873,0.31742 0.38796,0 0.68187,-0.22338 0.293911,-0.22336 0.493771,-0.5643 0.199847,-0.34094 0.29391,-0.74066 0.105808,-0.41148 0.105808,-0.77593 0,-0.59957 -0.188101,-0.91699 -0.1881,-0.32919 -0.68187,-0.32919 z"
         id="text-o"
         aria-label="o" />
      <path
         d="m 74.13184,120.92731 q -0.200225,0.0575 -0.424017,0.12674 -0.235627,0.0808 -0.518137,0.13783 -0.294338,0.0688 -0.647239,0.10184 -0.364731,0.0448 -0.83498,0.0419 -0.564297,-0.003 -0.927872,-0.14671 -0.375332,-0.14331 -0.679263,-0.4274 -0.436493,0.2442 -0.860654,0.39444 -0.435988,0.16187 -1.012042,0.15833 -0.552539,-0.003 -0.939556,-0.15864 -0.398846,-0.14346 -0.655751,-0.42727 -0.256975,-0.27197 -0.372158,-0.66063 -0.115244,-0.37694 -0.11243,-0.83542 0.0013,-0.21162 0.038,-0.44653 0.02496,-0.23498 0.08518,-0.46974 l 0.819909,-3.33385 1.751673,0.0108 -0.795964,3.26347 q -0.03627,0.16432 -0.07278,0.36399 -0.04833,0.21132 -0.04955,0.41119 -0.002,0.32916 0.149372,0.56523 0.151321,0.24783 0.59805,0.25057 0.246882,0.002 0.470826,-0.0913 0.223872,-0.0809 0.400793,-0.17396 -0.02294,-0.0943 -0.02243,-0.17655 5.05e-4,-0.0823 9.38e-4,-0.15288 0.0013,-0.21161 0.038,-0.44652 0.02496,-0.23498 0.08518,-0.46975 l 0.819909,-3.33385 1.751671,0.0108 -0.795964,3.26347 q -0.03627,0.16433 -0.07278,0.36399 -0.04833,0.21133 -0.04955,0.41119 -0.002,0.32917 0.149373,0.56523 0.15132,0.24783 0.598051,0.25057 0.188097,10e-4 0.317562,-0.0216 0.129397,-0.0117 0.305949,-0.0452 l 1.169712,-4.77778 1.751671,0.0108 z"
         id="text-w"
         aria-label="w" />
    </g>
  </g>
</svg>
